<svg version="1.1" xmlns="http://www.w3.org/2000/svg" viewBox="0 0 348.2158964989778 523.43359375" width="696.4317929979557" height="1046.8671875">
  <!-- svg-source:excalidraw -->
  
  <defs>
    <style>
      @font-face {
        font-family: "Virgil";
        src: url("https://excalidraw.com/FG_Virgil.woff2");
      }
      @font-face {
        font-family: "Cascadia";
        src: url("https://excalidraw.com/Cascadia.woff2");
      }
    </style>
  </defs>
  <g transform="translate(164.2909921067819 210.03125) rotate(0 13.248046875 151.701171875)"><path d="M1.830627927556634 -1.7593089137226343 L26.89551944471897 0.6777097787708044 L28.224824795499458 302.9786410536617 L-0.5528549458831549 304.5412510242313" stroke="none" stroke-width="0" fill="#32a852"></path><path d="M-1.3585353288799524 -1.8588603641837835 C8.738262958450292 1.1876258866432545, 21.290343457084248 -0.903940497195399, 26.2117179837078 0.8973853085190058 M0.4960966454818845 -0.918825943954289 C9.535609631434278 -0.3416756556318798, 20.72762372364888 -0.1666958198832073, 27.30986839998515 -0.2838705675676465 M25.334727123781978 -1.3440486521281563 C25.477537178949866 70.12935209543048, 26.80663300311188 137.32260113279034, 25.33096883492111 304.0029228011711 M26.04179800469409 -0.2087482028535894 C24.866340657473323 72.84382911998654, 25.17540003355419 146.84733345499964, 26.127551043444896 303.85905617475044 M27.554412206634893 301.4925639722496 C17.94859952277221 304.3930913045477, 5.703220417400736 305.0206678345274, 0.08949019573628902 303.1835821364075 M25.867920492775752 302.85104427766055 C18.56091810014733 304.15388319637356, 9.255598942687364 302.6296004131037, 0.4219666766002774 304.1557899219915 M-1.03444473953585 302.1192507899805 C-0.2931537488942313 225.9308018072998, -0.5398980310269974 146.1806755079916, 1.4451340105741637 -0.6058849745396715 M-0.20726773853778105 303.19722155839526 C0.6452117070581549 193.75734923613086, 0.38098459653140193 85.54228398446163, -0.10332162735580817 -0.3104141515921344" stroke="#000000" stroke-width="1" fill="none"></path></g><g transform="translate(207.9648202317819 36.927734375000014) rotate(40.92394393946994 37.037109375 62.63085937499999)"><path d="M38 0 L74.07421874999996 63 L38 125.26171875 L0 63" stroke="none" stroke-width="0" fill="#ebe54b" fill-rule="evenodd"></path><path d="M38 0 C46.328220726782085 14.544401070009918, 54.65644145356417 29.088802140019837, 74.07421874999996 63 M38 0 C45.91545901022072 13.823554186988623, 53.830918020441445 27.647108373977247, 74.07421874999996 63 M74.07421874999996 63 C61.71015392543083 84.33955920290282, 49.346089100861704 105.67911840580564, 38 125.26171875 M74.07421874999996 63 C66.0268060662838 76.88930273586921, 57.97939338256762 90.77860547173842, 38 125.26171875 M38 125.26171875 C23.540285241790116 101.56996365839768, 9.080570483580232 77.87820856679537, 0 63 M38 125.26171875 C23.742017957381904 101.90049591105162, 9.484035914763808 78.53927307210324, 0 63 M0 63 C10.87545750718564 44.96963623808696, 21.75091501437128 26.939272476173933, 38 0 M0 63 C7.67347870785743 50.27818003697321, 15.34695741571486 37.556360073946415, 38 0" stroke="#000000" stroke-width="1" fill="none"></path></g><g transform="translate(232.78513273178214 64.455078125) rotate(60.19221796395346 37.037109375 62.630859375)"><path d="M38 0 L74.07421874999996 63 L38 125.26171875 L0 63" stroke="none" stroke-width="0" fill="#ebe54b" fill-rule="evenodd"></path><path d="M38 0 C49.0943571532607 19.375180527102202, 60.188714306521405 38.750361054204404, 74.07421874999996 63 M38 0 C46.579830184049555 14.983811717201025, 55.15966036809912 29.96762343440205, 74.07421874999996 63 M74.07421874999996 63 C65.87020584867602 77.15958436753681, 57.66619294735207 91.31916873507362, 38 125.26171875 M74.07421874999996 63 C60.98328366736493 85.59408925632052, 47.8923485847299 108.18817851264103, 38 125.26171875 M38 125.26171875 C30.38671125192195 112.78760183433224, 22.773422503843904 100.31348491866447, 0 63 M38 125.26171875 C28.029216214828192 108.92492570396243, 18.058432429656385 92.58813265792486, 0 63 M0 63 C8.058877688460052 49.63922909544781, 16.117755376920105 36.27845819089562, 38 0 M0 63 C12.110926446504891 42.92135878605768, 24.221852893009782 22.84271757211536, 38 0" stroke="#000000" stroke-width="1" fill="none"></path></g><g transform="translate(233.83982023178214 156.52929687499997) rotate(299.8957533494196 37.037109375 62.630859375000014)"><path d="M38 0 L74.07421874999996 63 L38 125.26171875 L0 63" stroke="none" stroke-width="0" fill="#ebe54b" fill-rule="evenodd"></path><path d="M38 0 C49.108979547274416 19.400717069674286, 60.21795909454883 38.80143413934857, 74.07421874999996 63 M38 0 C46.594174410542095 15.008862468134613, 55.1883488210842 30.017724936269225, 74.07421874999996 63 M74.07421874999996 63 C65.51362417458401 77.77502078370927, 56.953029599168055 92.55004156741852, 38 125.26171875 M74.07421874999996 63 C61.14274690459749 85.31886624189174, 48.21127505919502 107.63773248378348, 38 125.26171875 M38 125.26171875 C24.643353465013206 103.37730374988132, 11.286706930026412 81.49288874976264, 0 63 M38 125.26171875 C23.696574962325393 101.82603909585778, 9.393149924650789 78.39035944171556, 0 63 M0 63 C8.838109806366266 48.347344268392774, 17.67621961273253 33.69468853678554, 38 0 M0 63 C10.82333496194333 45.056049931515005, 21.64666992388666 27.11209986303001, 38 0" stroke="#000000" stroke-width="1" fill="none"></path></g><g transform="translate(180.16794523178186 197.341796875) rotate(335.1670590647177 37.03710937499997 62.630859375)"><path d="M38 0 L74.07421874999996 63 L38 125.26171875 L0 63" stroke="none" stroke-width="0" fill="#ebe54b" fill-rule="evenodd"></path><path d="M38 0 C50.7942562446642 22.343883564043793, 63.588512489328394 44.687767128087586, 74.07421874999996 63 M38 0 C48.1470509472765 17.720805379282684, 58.294101894553 35.44161075856537, 74.07421874999996 63 M74.07421874999996 63 C64.99700552510873 78.66667044846145, 55.9197923002175 94.33334089692289, 38 125.26171875 M74.07421874999996 63 C59.686804418184664 87.83172680398529, 45.29939008636937 112.66345360797058, 38 125.26171875 M38 125.26171875 C23.717798903398215 101.86081380769573, 9.43559780679643 78.45990886539147, 0 63 M38 125.26171875 C22.95710724610835 100.61444617554699, 7.914214492216704 75.96717360109396, 0 63 M0 63 C8.491798523254692 48.92149192197248, 16.983597046509384 34.842983843944964, 38 0 M0 63 C8.592139226011932 48.75513759898022, 17.184278452023865 34.51027519796044, 38 0" stroke="#000000" stroke-width="1" fill="none"></path></g><g transform="translate(95.38278898178197 198.783203125) rotate(206.0385345420253 37.03710937499997 62.630859375)"><path d="M38 0 L74.07421874999996 63 L38 125.26171875 L0 63" stroke="none" stroke-width="0" fill="#ebe54b" fill-rule="evenodd"></path><path d="M38 0 C47.291489003278905 16.22665237085894, 56.58297800655781 32.45330474171788, 74.07421874999996 63 M38 0 C46.453799083979895 14.763711058627814, 54.90759816795979 29.52742211725563, 74.07421874999996 63 M74.07421874999996 63 C64.52428979788053 79.4825465693375, 54.97436084576109 95.965093138675, 38 125.26171875 M74.07421874999996 63 C61.2772083458494 85.08679467588044, 48.48019794169885 107.1735893517609, 38 125.26171875 M38 125.26171875 C25.649087628535923 105.02516526636865, 13.29817525707185 84.78861178273728, 0 63 M38 125.26171875 C28.937886983342466 110.41375212042513, 19.875773966684935 95.56578549085025, 0 63 M0 63 C9.274281427450479 47.62421763343737, 18.548562854900958 32.24843526687473, 38 0 M0 63 C9.860237395577133 46.65276431785897, 19.720474791154267 30.305528635717927, 38 0" stroke="#000000" stroke-width="1" fill="none"></path></g><g transform="translate(50.02341398178197 136.74414062499997) rotate(255.5591002643056 37.03710937499997 62.630859375000014)"><path d="M38 0 L74.07421874999996 63 L38 125.26171875 L0 63" stroke="none" stroke-width="0" fill="#ebe54b" fill-rule="evenodd"></path><path d="M38 0 C47.84671895496466 17.19630571799353, 57.69343790992932 34.39261143598706, 74.07421874999996 63 M38 0 C50.758133230823645 22.280798348318786, 63.51626646164729 44.56159669663757, 74.07421874999996 63 M74.07421874999996 63 C64.9492889166049 78.74902616291111, 55.82435908320983 94.49805232582221, 38 125.26171875 M74.07421874999996 63 C59.97211541138856 87.33929887537924, 45.87001207277716 111.67859775075848, 38 125.26171875 M38 125.26171875 C26.943901422433555 107.14667401029692, 15.88780284486711 89.03162927059384, 0 63 M38 125.26171875 C23.996285259909925 102.31710431308639, 9.992570519819854 79.37248987617276, 0 63 M0 63 C9.377342274971307 47.4533535967581, 18.754684549942613 31.906707193516194, 38 0 M0 63 C8.844671875052155 48.33646504925564, 17.68934375010431 33.67293009851127, 38 0" stroke="#000000" stroke-width="1" fill="none"></path></g><g transform="translate(238.5546639817819 109.998046875) rotate(90.84034163515763 37.037109375 62.630859375)"><path d="M38 0 L74.07421874999996 63 L38 125.26171875 L0 63" stroke="none" stroke-width="0" fill="#ebe54b" fill-rule="evenodd"></path><path d="M38 0 C45.763576701376216 13.558306988608093, 53.52715340275243 27.116613977216186, 74.07421874999996 63 M38 0 C49.79158294310945 20.59281534450129, 61.58316588621889 41.18563068900258, 74.07421874999996 63 M74.07421874999996 63 C62.37614935353665 83.1900950850275, 50.67807995707334 103.38019017005499, 38 125.26171875 M74.07421874999996 63 C63.58508314635216 81.10355521240308, 53.095947542704366 99.20711042480616, 38 125.26171875 M38 125.26171875 C26.386364567466078 106.23316867196154, 14.772729134932156 87.20461859392307, 0 63 M38 125.26171875 C26.66229338329285 106.68526873317278, 15.324586766585703 88.10881871634555, 0 63 M0 63 C13.866610389761629 40.01061961697414, 27.733220779523258 17.021239233948286, 38 0 M0 63 C13.997453007288277 39.793696330022065, 27.994906014576554 16.58739266004413, 38 0" stroke="#000000" stroke-width="1" fill="none"></path></g><g transform="translate(206.1913827317819 172.634765625) rotate(316.57385130671 37.037109375 62.630859375)"><path d="M38 0 L74.07421874999996 63 L38 125.26171875 L0 63" stroke="none" stroke-width="0" fill="#ebe54b" fill-rule="evenodd"></path><path d="M38 0 C45.66060545229083 13.378478043805808, 53.32121090458166 26.756956087611616, 74.07421874999996 63 M38 0 C51.58855894486804 23.731053455639632, 65.17711788973608 47.462106911279264, 74.07421874999996 63 M74.07421874999996 63 C63.17265524694264 81.81537852465954, 52.27109174388532 100.63075704931907, 38 125.26171875 M74.07421874999996 63 C64.71195750026342 79.15864451105044, 55.34969625052688 95.31728902210088, 38 125.26171875 M38 125.26171875 C28.89887525457889 110.34983271820856, 19.797750509157776 95.43794668641712, 0 63 M38 125.26171875 C24.213972130231557 102.67377691033725, 10.427944260463114 80.0858350706745, 0 63 M0 63 C10.64140038471669 45.357678309548646, 21.28280076943338 27.715356619097292, 38 0 M0 63 C12.720830145664513 41.91020265324041, 25.441660291329026 20.820405306480822, 38 0" stroke="#000000" stroke-width="1" fill="none"></path></g><g transform="translate(138.9726327317819 202.169921875) rotate(0 37.037109375 62.630859375)"><path d="M38 0 L74.07421874999996 63 L38 125.26171875 L0 63" stroke="none" stroke-width="0" fill="#ebe54b" fill-rule="evenodd"></path><path d="M38 0 C47.411733381677536 16.436647101212294, 56.82346676335508 32.87329420242459, 74.07421874999996 63 M38 0 C50.47680933678019 21.789494421612474, 62.953618673560385 43.57898884322495, 74.07421874999996 63 M74.07421874999996 63 C66.31247581885506 76.39625561229222, 58.550732887710154 89.79251122458444, 38 125.26171875 M74.07421874999996 63 C61.884495066560675 84.0386579090784, 49.69477138312139 105.07731581815679, 38 125.26171875 M38 125.26171875 C27.40403615515679 107.90058925545273, 16.80807231031358 90.53945976090544, 0 63 M38 125.26171875 C23.963904929347336 102.26405023323059, 9.927809858694673 79.26638171646118, 0 63 M0 63 C7.950124183483423 49.81953095896169, 15.900248366966846 36.639061917923385, 38 0 M0 63 C8.25411481242627 49.31554649518803, 16.50822962485254 35.631092990376054, 38 0" stroke="#000000" stroke-width="1" fill="none"></path></g><g transform="translate(70.34372648178191 172.361328125) rotate(44.40877815944384 37.03710937499997 62.630859375)"><path d="M38 0 L74.07421874999996 63 L38 125.26171875 L0 63" stroke="none" stroke-width="0" fill="#ebe54b" fill-rule="evenodd"></path><path d="M38 0 C50.237425885663455 21.37143526626751, 62.47485177132691 42.74287053253502, 74.07421874999996 63 M38 0 C50.777503891609726 22.31462726192549, 63.55500778321945 44.62925452385098, 74.07421874999996 63 M74.07421874999996 63 C64.08068649426602 80.24817657002095, 54.08715423853207 97.4963531400419, 38 125.26171875 M74.07421874999996 63 C60.67029638327037 86.13428463490018, 47.26637401654078 109.26856926980037, 38 125.26171875 M38 125.26171875 C22.860451978631318 100.45607977872169, 7.720903957262635 75.65044080744337, 0 63 M38 125.26171875 C24.789627232961355 103.61696838673633, 11.579254465922709 81.97221802347266, 0 63 M0 63 C12.623116659931839 42.07220132695511, 25.246233319863677 21.14440265391022, 38 0 M0 63 C13.828969446010888 40.073024339508265, 27.657938892021775 17.14604867901653, 38 0" stroke="#000000" stroke-width="1" fill="none"></path></g><g transform="translate(64.77341398178191 39.224609375) rotate(318.770042011345 37.03710937499997 62.630859375)"><path d="M38 0 L74.07421874999996 63 L38 125.26171875 L0 63" stroke="none" stroke-width="0" fill="#ebe54b" fill-rule="evenodd"></path><path d="M38 0 C48.47452890602834 18.2927127446048, 58.94905781205668 36.5854254892096, 74.07421874999996 63 M38 0 C50.79905063303339 22.352256481815132, 63.59810126606678 44.704512963630265, 74.07421874999996 63 M74.07421874999996 63 C66.71319983896134 75.70463242263614, 59.35218092792272 88.40926484527226, 38 125.26171875 M74.07421874999996 63 C63.68418286904304 80.93251563687845, 53.294146988086126 98.8650312737569, 38 125.26171875 M38 125.26171875 C23.351754486747083 101.261062372971, 8.70350897349417 77.26040599594198, 0 63 M38 125.26171875 C24.16757759731263 102.59776103243894, 10.335155194625258 79.93380331487788, 0 63 M0 63 C14.772475963644684 38.508789849746975, 29.544951927289368 14.017579699493943, 38 0 M0 63 C14.36539572197944 39.18368603987619, 28.73079144395888 15.367372079752386, 38 0" stroke="#000000" stroke-width="1" fill="none"></path></g><g transform="translate(139.3808358567819 10) rotate(0 37.037109375 62.630859375)"><path d="M38 0 L74.07421874999996 63 L38 125.26171875 L0 63" stroke="none" stroke-width="0" fill="#ebe54b" fill-rule="evenodd"></path><path d="M38 0 C47.41033708460235 16.43420860860497, 56.8206741692047 32.86841721720994, 74.07421874999996 63 M38 0 C45.79349598080079 13.61055800523609, 53.58699196160158 27.22111601047218, 74.07421874999996 63 M74.07421874999996 63 C62.85313379783108 82.36685144045695, 51.6320488456622 101.73370288091391, 38 125.26171875 M74.07421874999996 63 C65.02671912532603 78.61538673716059, 55.97921950065208 94.23077347432118, 38 125.26171875 M38 125.26171875 C24.562604748830196 103.24499970102843, 11.125209497660396 81.22828065205685, 0 63 M38 125.26171875 C23.25221599973738 101.09797191815524, 8.504431999474765 76.93422508631048, 0 63 M0 63 C9.027212167158723 48.03383245971054, 18.054424334317446 33.06766491942108, 38 0 M0 63 C14.328258031234146 39.24525642190129, 28.65651606246829 15.49051284380257, 38 0" stroke="#000000" stroke-width="1" fill="none"></path></g><g transform="translate(99.16403898178191 24.001953125) rotate(335.1670590647177 37.03710937499997 62.630859375)"><path d="M38 0 L74.07421874999996 63 L38 125.26171875 L0 63" stroke="none" stroke-width="0" fill="#ebe54b" fill-rule="evenodd"></path><path d="M38 0 C49.412520504783956 19.93082086639479, 60.82504100956791 39.86164173278958, 74.07421874999996 63 M38 0 C50.338163301325025 21.54736304534599, 62.67632660265005 43.09472609069198, 74.07421874999996 63 M74.07421874999996 63 C60.03860897262891 87.22453538078153, 46.00299919525786 111.44907076156306, 38 125.26171875 M74.07421874999996 63 C64.23269800943123 79.98581473567137, 54.3911772688625 96.97162947134275, 38 125.26171875 M38 125.26171875 C25.31719733756036 104.48137421498504, 12.634394675120713 83.70102967997009, 0 63 M38 125.26171875 C25.827768588252365 105.31792799425929, 13.65553717650473 85.37413723851859, 0 63 M0 63 C12.938742175884544 41.54892744524405, 25.877484351769088 20.097854890488094, 38 0 M0 63 C7.740278619341552 50.16743281530216, 15.480557238683105 37.33486563060433, 38 0" stroke="#000000" stroke-width="1" fill="none"></path></g><g transform="translate(178.7343514817819 22.111328125) rotate(27.21184813105195 37.037109375 62.630859375)"><path d="M38 0 L74.07421874999996 63 L38 125.26171875 L0 63" stroke="none" stroke-width="0" fill="#ebe54b" fill-rule="evenodd"></path><path d="M38 0 C51.878763000049716 24.23786569191143, 65.75752600009943 48.47573138382286, 74.07421874999996 63 M38 0 C47.18270621797454 16.036674161721024, 56.36541243594909 32.07334832344205, 74.07421874999996 63 M74.07421874999996 63 C61.6831977335041 84.38608380962941, 49.292176717008246 105.77216761925884, 38 125.26171875 M74.07421874999996 63 C61.26322101074581 85.11093589236297, 48.45222327149166 107.22187178472595, 38 125.26171875 M38 125.26171875 C27.20339946169406 107.57185279810255, 16.406798923388124 89.88198684620511, 0 63 M38 125.26171875 C29.57932592909783 111.46472820558083, 21.15865185819566 97.66773766116167, 0 63 M0 63 C10.906179308705033 44.918702725041655, 21.812358617410066 26.83740545008331, 38 0 M0 63 C13.637528196163476 40.39041378004477, 27.275056392326952 17.780827560089527, 38 0" stroke="#000000" stroke-width="1" fill="none"></path></g><g transform="translate(55.67966398178197 71.70507812499997) rotate(300.1860977272909 37.03710937499997 62.630859375000014)"><path d="M38 0 L74.07421874999996 63 L38 125.26171875 L0 63" stroke="none" stroke-width="0" fill="#ebe54b" fill-rule="evenodd"></path><path d="M38 0 C48.23859436126621 17.88067675782368, 58.477188722532425 35.76135351564736, 74.07421874999996 63 M38 0 C48.479796249064734 18.301911630202085, 58.95959249812947 36.60382326040417, 74.07421874999996 63 M74.07421874999996 63 C66.51781983152065 76.0418454100316, 58.96142091304134 89.0836908200632, 38 125.26171875 M74.07421874999996 63 C62.14736041083776 83.58496968791624, 50.22050207167557 104.16993937583247, 38 125.26171875 M38 125.26171875 C24.84870293755084 103.71376193684446, 11.697405875101683 82.16580512368891, 0 63 M38 125.26171875 C28.52197125237435 109.73228821870835, 19.043942504748703 94.2028576874167, 0 63 M0 63 C10.495553338341415 45.59947736011818, 20.99110667668283 28.198954720236358, 38 0 M0 63 C7.707049849815667 50.22252261741087, 15.414099699631334 37.445045234821734, 38 0" stroke="#000000" stroke-width="1" fill="none"></path></g><g transform="translate(35.593726481781914 105.521484375) rotate(90.04965301961255 37.03710937499997 62.630859375)"><path d="M38 0 L74.07421874999996 63 L38 125.26171875 L0 63" stroke="none" stroke-width="0" fill="#ebe54b" fill-rule="evenodd"></path><path d="M38 0 C52.13136595306604 24.679011379648003, 66.26273190613207 49.358022759296006, 74.07421874999996 63 M38 0 C51.6488256604989 23.836303221713752, 65.2976513209978 47.672606443427505, 74.07421874999996 63 M74.07421874999996 63 C65.69091118488538 77.46903511427846, 57.30760361977079 91.9380702285569, 38 125.26171875 M74.07421874999996 63 C59.71426375480402 87.78433380275347, 45.35430875960809 112.56866760550693, 38 125.26171875 M38 125.26171875 C29.0488862125203 110.59562061486031, 20.097772425040603 95.92952247972062, 0 63 M38 125.26171875 C25.77373293060809 105.22939239113512, 13.547465861216185 85.19706603227023, 0 63 M0 63 C11.659834405966105 43.6692219058983, 23.31966881193221 24.3384438117966, 38 0 M0 63 C8.485914885811509 48.931246373523024, 16.971829771623018 34.86249274704605, 38 0" stroke="#000000" stroke-width="1" fill="none"></path></g><g transform="translate(116.65427335678191 114.11328125) rotate(0 61.57421875 58.986328125)"><path d="M61.57421875000001 0 C71.04616543703632 -0.8593149282215684, 82.77061945216862 2.7875596190419296, 91.485629340641 7.4274324317058245 C100.20063922911338 12.06730524436972, 108.59947935731086 19.727976996530103, 113.86427808083425 27.83923687598337 C119.12907680435765 35.95049675543664, 122.58569854055582 46.55504979589761, 123.07442168178139 56.09499170842544 C123.56314482300695 65.63493362095328, 121.20704731713863 76.51276261860991, 116.79661692818759 85.07888835115037 C112.38618653923655 93.64501408369082, 104.81071932105253 102.05669305791484, 96.61183934807516 107.49174610366816 C88.4129593750978 112.92679914942148, 77.52589574360486 116.7539668051734, 67.60333709032338 117.6892066256703 C57.68077843704189 118.62444644616718, 46.22386998359988 116.90328523210971, 37.07648742838623 113.10318502664947 C27.929104873172577 109.30308482118923, 18.787610474511386 102.46704462402813, 12.719041759041453 94.88860539290883 C6.6504730435715205 87.31016616178952, 2.1265475931772775 77.08080613866512, 0.6650751355666387 67.63254963993363 C-0.7963973220439999 58.184293141202126, 0.4365322333595869 47.13773161669778, 3.9502070133776215 38.199066400519825 C7.463881793395656 29.260401184341873, 14.143170642899054 20.178557017758884, 21.747123815674847 14.000558342865922 C29.35107698845064 7.822559667972961, 42.93607689431151 3.4645007416397164, 49.57392605003237 1.131074351162063 C56.21177520575323 -1.2023520393155906, 59.574169966672045 -0.008108701889656325, 61.574218749999986 0 C63.57426753332793 0.008108701889656325, 61.57421875000001 0.19662109375000136, 61.57421875000001 1.1797265625000009 M61.57421875000001 0 C71.04616543703632 -0.8593149282215684, 82.77061945216862 2.7875596190419296, 91.485629340641 7.4274324317058245 C100.20063922911338 12.06730524436972, 108.59947935731086 19.727976996530103, 113.86427808083425 27.83923687598337 C119.12907680435765 35.95049675543664, 122.58569854055582 46.55504979589761, 123.07442168178139 56.09499170842544 C123.56314482300695 65.63493362095328, 121.20704731713863 76.51276261860991, 116.79661692818759 85.07888835115037 C112.38618653923655 93.64501408369082, 104.81071932105253 102.05669305791484, 96.61183934807516 107.49174610366816 C88.4129593750978 112.92679914942148, 77.52589574360486 116.7539668051734, 67.60333709032338 117.6892066256703 C57.68077843704189 118.62444644616718, 46.22386998359988 116.90328523210971, 37.07648742838623 113.10318502664947 C27.929104873172577 109.30308482118923, 18.787610474511386 102.46704462402813, 12.719041759041453 94.88860539290883 C6.6504730435715205 87.31016616178952, 2.1265475931772775 77.08080613866512, 0.6650751355666387 67.63254963993363 C-0.7963973220439999 58.184293141202126, 0.4365322333595869 47.13773161669778, 3.9502070133776215 38.199066400519825 C7.463881793395656 29.260401184341873, 14.143170642899054 20.178557017758884, 21.747123815674847 14.000558342865922 C29.35107698845064 7.822559667972961, 42.93607689431151 3.4645007416397164, 49.57392605003237 1.131074351162063 C56.21177520575323 -1.2023520393155906, 59.574169966672045 -0.008108701889656325, 61.574218749999986 0 C63.57426753332793 0.008108701889656325, 61.57421875000001 0.19662109375000136, 61.57421875000001 1.1797265625000009" stroke="none" stroke-width="0" fill="#784302"></path><path d="M61.57421875000001 0 C71.04616543703632 -0.8593149282215684, 82.77061945216862 2.7875596190419296, 91.485629340641 7.4274324317058245 C100.20063922911338 12.06730524436972, 108.59947935731086 19.727976996530103, 113.86427808083425 27.83923687598337 C119.12907680435765 35.95049675543664, 122.58569854055582 46.55504979589761, 123.07442168178139 56.09499170842544 C123.56314482300695 65.63493362095328, 121.20704731713863 76.51276261860991, 116.79661692818759 85.07888835115037 C112.38618653923655 93.64501408369082, 104.81071932105253 102.05669305791484, 96.61183934807516 107.49174610366816 C88.4129593750978 112.92679914942148, 77.52589574360486 116.7539668051734, 67.60333709032338 117.6892066256703 C57.68077843704189 118.62444644616718, 46.22386998359988 116.90328523210971, 37.07648742838623 113.10318502664947 C27.929104873172577 109.30308482118923, 18.787610474511386 102.46704462402813, 12.719041759041453 94.88860539290883 C6.6504730435715205 87.31016616178952, 2.1265475931772775 77.08080613866512, 0.6650751355666387 67.63254963993363 C-0.7963973220439999 58.184293141202126, 0.4365322333595869 47.13773161669778, 3.9502070133776215 38.199066400519825 C7.463881793395656 29.260401184341873, 14.143170642899054 20.178557017758884, 21.747123815674847 14.000558342865922 C29.35107698845064 7.822559667972961, 42.93607689431151 3.4645007416397164, 49.57392605003237 1.131074351162063 C56.21177520575323 -1.2023520393155906, 59.574169966672045 -0.008108701889656325, 61.574218749999986 0 C63.57426753332793 0.008108701889656325, 61.57421875000001 0.19662109375000136, 61.57421875000001 1.1797265625000009 M61.57421875000001 0 C71.04616543703632 -0.8593149282215684, 82.77061945216862 2.7875596190419296, 91.485629340641 7.4274324317058245 C100.20063922911338 12.06730524436972, 108.59947935731086 19.727976996530103, 113.86427808083425 27.83923687598337 C119.12907680435765 35.95049675543664, 122.58569854055582 46.55504979589761, 123.07442168178139 56.09499170842544 C123.56314482300695 65.63493362095328, 121.20704731713863 76.51276261860991, 116.79661692818759 85.07888835115037 C112.38618653923655 93.64501408369082, 104.81071932105253 102.05669305791484, 96.61183934807516 107.49174610366816 C88.4129593750978 112.92679914942148, 77.52589574360486 116.7539668051734, 67.60333709032338 117.6892066256703 C57.68077843704189 118.62444644616718, 46.22386998359988 116.90328523210971, 37.07648742838623 113.10318502664947 C27.929104873172577 109.30308482118923, 18.787610474511386 102.46704462402813, 12.719041759041453 94.88860539290883 C6.6504730435715205 87.31016616178952, 2.1265475931772775 77.08080613866512, 0.6650751355666387 67.63254963993363 C-0.7963973220439999 58.184293141202126, 0.4365322333595869 47.13773161669778, 3.9502070133776215 38.199066400519825 C7.463881793395656 29.260401184341873, 14.143170642899054 20.178557017758884, 21.747123815674847 14.000558342865922 C29.35107698845064 7.822559667972961, 42.93607689431151 3.4645007416397164, 49.57392605003237 1.131074351162063 C56.21177520575323 -1.2023520393155906, 59.574169966672045 -0.008108701889656325, 61.574218749999986 0 C63.57426753332793 0.008108701889656325, 61.57421875000001 0.19662109375000136, 61.57421875000001 1.1797265625000009" stroke="#000000" stroke-width="1" fill="none"></path></g><g transform="translate(186.6347421067819 337.07421875) rotate(11.918864946722032 47.869140625 19.203125)"><path d="M46.41156525351107 0.6663522329181433 L97.2269164416939 21.9093382563442 L49.66697199083865 36.811219772323966 L-1.7041201498359442 20.416247269138694" stroke="none" stroke-width="0" fill="#32a852" fill-rule="evenodd"></path><path d="M48.671394845470786 0.9005857203155756 C67.10811550594553 9.553006452606606, 87.16321545328319 17.706611803831148, 96.37060972116888 19.12763179279864 M48.469986443407834 0.7156097395345569 C66.06202057140145 7.690496978734191, 85.70157692741995 16.480460155208164, 96.26137641537935 20.326728026382625 M94.65285392664373 21.33767426945269 C82.79793715300555 23.331051390342218, 70.05844014034273 29.439576676214966, 48.91147699020803 40.31204433180392 M96.36964014638215 20.325287262909114 C84.81966701729289 25.277125974211923, 74.78408645188539 29.664003438106704, 47.96752292383462 38.70530642103404 M46.193858524784446 38.15109986998141 C34.26772010088462 33.35484071006707, 19.82746258885163 27.008537068547447, 0.32091077230870724 18.68389011360705 M47.63174826372415 38.52668822836131 C38.06670312938251 34.52032964079932, 28.882248108656782 30.80403617950738, -0.3718046201393008 20.619181255809963 M-0.17928520776331425 21.723736057057977 C15.209943597577514 14.796916775852441, 33.76153645869345 5.845129592791199, 46.95920159481466 -0.37981670163571835 M-0.1079164994880557 20.762653212063015 C19.116071789711715 12.995170108415188, 37.853729761391875 4.207529128901662, 47.6731118010357 0.7797477943822742" stroke="#000000" stroke-width="1" fill="none"></path></g><g transform="translate(33.517554606781914 354.0625) rotate(320.35813267414716 73.240234375 27.197265625)"><path d="M72.99854530952871 -1.2193637397140265 L146.57338901422918 29.35407460667193 L72.53533866070211 53.7270220015198 L-1.3389333877712488 28.346438894048333" stroke="none" stroke-width="0" fill="#32a852" fill-rule="evenodd"></path><path d="M75.14621342159808 0.8680739607661963 C89.84809454695649 9.0517609905879, 108.51170816703423 13.621309185070823, 147.19394011236727 27.97613283060491 M74.2581167621538 -0.44577407371252775 C95.53476536022055 7.482751499868211, 117.21868817779279 16.44027497210282, 147.361040125601 28.06087163556367 M148.331152388826 26.349929770454764 C123.58104273063941 38.55006270134527, 96.40359313134354 44.84121497962933, 75.14701605774462 54.00665464065969 M147.18129278253764 27.47687462437898 C122.04423008081449 37.41553526178123, 97.0339274449243 46.495312654884586, 73.29612849187106 53.812962357886136 M72.3463468644768 54.904026409611106 C60.581890919049286 48.93204126305507, 42.04432772192081 44.716232320155974, 0.6379280779510736 29.426250776275992 M73.42968223523349 54.58570820558816 C57.72477493350775 47.50488280295649, 40.45698427752973 42.44510978423568, 0.963870476000011 28.9917469965294 M-1.4819702412933111 27.81448253057897 C27.456974228993058 16.673576956707983, 54.55681731212884 8.466104937437922, 72.44017470814288 1.6733367647975683 M-0.488444616086781 28.289936874993145 C27.962226882092654 18.430648171994832, 56.868677772283554 7.726922159362584, 73.87546602915972 0.6206935690715909" stroke="#000000" stroke-width="1" fill="none"></path></g></svg>